<svg aria-hidden="true" style="position: absolute; width: 0; height: 0; overflow: hidden;" version="1.1" xmlns="http://www.w3.org/2000/svg" xmlns:xlink="http://www.w3.org/1999/xlink">
<defs>
<symbol id="icon-facebook" viewBox="0 0 17 32">
<path fill="#FFFFFF" style="fill: var(--color1, #FFFFFF)" d="M15.415 1.877l-3.725-0.006c-4.184 0-6.889 2.775-6.889 7.070v3.256h-3.746c0 0 0 0 0 0-0.323 0-0.585 0.262-0.585 0.585 0 0.001 0 0.001 0 0.002v-0 4.723c0 0.324 0.264 0.584 0.585 0.584h3.746v11.919c0 0.324 0.264 0.585 0.585 0.585h4.887c0.324 0 0.585-0.264 0.585-0.585v-11.915h4.38c0.324 0 0.585-0.264 0.585-0.585l0.002-4.725c-0.002-0.322-0.263-0.582-0.585-0.584h-4.382v-2.765c0-1.329 0.316-2.003 2.048-2.003h2.509c0.322 0 0.584-0.264 0.584-0.587v-4.386c0-0.322-0.26-0.584-0.584-0.584z"></path>
</symbol>
<symbol id="icon-youtube" viewBox="0 0 49 32">
<path fill="#FFFFFF" style="fill: var(--color1, #FFFFFF)" d="M48.465 4.78c-0.553-1.868-2.173-3.343-4.23-3.846-3.756-0.934-18.781-0.934-18.781-0.934s-15.025 0-18.781 0.899c-2.016 0.503-3.677 2.010-4.23 3.881-0.989 3.412-0.989 10.493-0.989 10.493s0 7.116 0.989 10.493c0.553 1.868 2.173 3.343 4.23 3.846 3.799 0.934 18.781 0.934 18.781 0.934s15.025 0 18.781-0.899c2.057-0.503 3.677-1.978 4.23-3.846 0.989-3.412 0.989-10.493 0.989-10.493s0.041-7.116-0.989-10.528zM20.669 21.812v-13.079l12.495 6.54-12.495 6.54z"></path>
</symbol>
<symbol id="icon-instagram" viewBox="0 0 32 32">
<path fill="#FFFFFF" style="fill: var(--color1, #FFFFFF)" d="M15.692 9.932c-3.553 0.004-6.433 2.884-6.437 6.437v0c0.004 3.553 2.884 6.433 6.437 6.437h0c3.553-0.004 6.433-2.884 6.437-6.437v-0c-0.004-3.553-2.884-6.433-6.437-6.437h-0zM15.692 9.932c-3.553 0.004-6.433 2.884-6.437 6.437v0c0.004 3.553 2.884 6.433 6.437 6.437h0c3.553-0.004 6.433-2.884 6.437-6.437v-0c-0.004-3.553-2.884-6.433-6.437-6.437h-0zM26.786 0.615h-22.188c-2.539 0-4.598 2.059-4.598 4.598v0 22.188c0 2.538 2.060 4.598 4.598 4.598h22.188c2.54 0 4.598-2.059 4.598-4.598v0-22.188c0-2.539-2.059-4.598-4.598-4.598v0zM15.692 24.645c-4.568-0.007-8.269-3.708-8.276-8.275v-0.001c0.007-4.568 3.708-8.269 8.275-8.276h0.001c4.568 0.007 8.269 3.708 8.276 8.275v0.001c-0.007 4.568-3.708 8.269-8.275 8.276h-0.001zM25.807 8.094c-1.014-0.004-1.835-0.825-1.839-1.838v-0c0.004-1.014 0.825-1.835 1.838-1.839h0c1.014 0.004 1.835 0.825 1.839 1.838v0c-0.004 1.014-0.825 1.835-1.838 1.839h-0zM15.692 9.932c-3.553 0.004-6.433 2.884-6.437 6.437v0c0.004 3.553 2.884 6.433 6.437 6.437h0c3.553-0.004 6.433-2.884 6.437-6.437v-0c-0.004-3.553-2.884-6.433-6.437-6.437h-0zM15.692 9.932c-3.553 0.004-6.433 2.884-6.437 6.437v0c0.004 3.553 2.884 6.433 6.437 6.437h0c3.553-0.004 6.433-2.884 6.437-6.437v-0c-0.004-3.553-2.884-6.433-6.437-6.437h-0zM15.692 9.932c-3.553 0.004-6.433 2.884-6.437 6.437v0c0.004 3.553 2.884 6.433 6.437 6.437h0c3.553-0.004 6.433-2.884 6.437-6.437v-0c-0.004-3.553-2.884-6.433-6.437-6.437h-0z"></path>
</symbol>
<symbol id="icon-telegram" viewBox="0 0 43 32">
<path fill="#FFFFFF" style="fill: var(--color1, #FFFFFF)" d="M17.029 21.091l-0.661 8.933c0.947 0 1.357-0.389 1.848-0.859l4.437-4.072 9.2 6.467c1.685 0.901 2.872 0.427 3.328-1.493l6.037-27.152c0.533-2.395-0.901-3.333-2.544-2.747l-35.485 13.045c-2.421 0.901-2.384 2.2-0.411 2.787l9.072 2.709 21.072-12.659c0.992-0.629 1.893-0.28 1.152 0.349l-17.045 14.693z"></path>
</symbol>
</defs>
</svg>
